<svg xmlns="http://www.w3.org/2000/svg" width="29.752" height="23.803" viewBox="0 0 29.752 23.803">
  <path id="github-altstyle_brands" data-name="github-altstyle=brands" d="M11.535,80.407c0,1.3-.676,3.415-2.275,3.415S6.986,81.7,6.986,80.407s.676-3.415,2.275-3.415S11.535,79.112,11.535,80.407Zm18.217-3.13a13.434,13.434,0,0,1-1.085,5.888C26.319,87.914,19.86,87.8,15.236,87.8c-4.7,0-11.541.167-13.984-4.636A13.267,13.267,0,0,1,0,77.277a10.66,10.66,0,0,1,2.572-7.041A9.7,9.7,0,0,1,2.1,67.211,6.172,6.172,0,0,1,3,64a9.685,9.685,0,0,1,6.744,2.231,23.742,23.742,0,0,1,5.5-.62,21.382,21.382,0,0,1,4.984.57A9.58,9.58,0,0,1,26.907,64a6.115,6.115,0,0,1,.9,3.211,9.567,9.567,0,0,1-.477,2.988A10.68,10.68,0,0,1,29.752,77.277Zm-3.986,3.13c0-2.721-1.655-5.12-4.556-5.12a25.482,25.482,0,0,0-3.471.372,18.214,18.214,0,0,1-2.8.2,18.326,18.326,0,0,1-2.8-.2,25.069,25.069,0,0,0-3.471-.372c-2.9,0-4.556,2.4-4.556,5.12,0,5.442,4.984,6.279,9.322,6.279h2.988C20.79,86.686,25.767,85.856,25.767,80.407Zm-5.12-3.415c-1.6,0-2.275,2.12-2.275,3.415s.676,3.415,2.275,3.415,2.275-2.12,2.275-3.415S22.246,76.992,20.647,76.992Z" transform="translate(0 -64)" fill="#f89799"/>
</svg>
