<svg xmlns="http://www.w3.org/2000/svg" width="24.302" height="24.296" viewBox="0 0 24.302 24.296">
  <path id="instagramstyle_brands" data-name="instagramstyle=brands" d="M12.079,37.744a6.229,6.229,0,1,0,6.229,6.229A6.219,6.219,0,0,0,12.079,37.744Zm0,10.279a4.05,4.05,0,1,1,4.05-4.05,4.057,4.057,0,0,1-4.05,4.05Zm7.937-10.534a1.453,1.453,0,1,1-1.453-1.453A1.45,1.45,0,0,1,20.016,37.489Zm4.126,1.475a7.19,7.19,0,0,0-1.963-5.091,7.238,7.238,0,0,0-5.091-1.963c-2.006-.114-8.018-.114-10.024,0a7.227,7.227,0,0,0-5.091,1.957A7.214,7.214,0,0,0,.01,38.958C-.1,40.964-.1,46.977.01,48.983a7.19,7.19,0,0,0,1.963,5.091,7.247,7.247,0,0,0,5.091,1.963c2.006.114,8.018.114,10.024,0a7.19,7.19,0,0,0,5.091-1.963,7.238,7.238,0,0,0,1.963-5.091C24.255,46.977,24.255,40.97,24.141,38.964ZM21.55,51.135a4.1,4.1,0,0,1-2.31,2.31c-1.6.634-5.394.488-7.162.488s-5.568.141-7.162-.488a4.1,4.1,0,0,1-2.31-2.31c-.634-1.6-.488-5.394-.488-7.162s-.141-5.568.488-7.162a4.1,4.1,0,0,1,2.31-2.31c1.6-.634,5.394-.488,7.162-.488s5.568-.141,7.162.488a4.1,4.1,0,0,1,2.31,2.31c.634,1.6.488,5.394.488,7.162S22.184,49.541,21.55,51.135Z" transform="translate(0.075 -31.825)" fill="#f89799"/>
</svg>
