<svg xmlns="http://www.w3.org/2000/svg" xmlns:xlink="http://www.w3.org/1999/xlink" width="27.603" height="44.94" viewBox="0 0 27.603 44.94">
  <defs>
    <clipPath id="clip-path">
      <rect id="Rectangle_35" data-name="Rectangle 35" width="27.603" height="44.94" fill="#f89799" stroke="#aeaeae" stroke-width="1"/>
    </clipPath>
  </defs>
  <g id="Mask_Group_1" data-name="Mask Group 1" clip-path="url(#clip-path)">
    <path id="twitterstyle_brands" data-name="twitterstyle=brands" d="M24.765,35.638c.018.245.018.49.018.736,0,7.479-5.692,16.1-16.1,16.1A15.987,15.987,0,0,1,0,49.93,11.7,11.7,0,0,0,1.366,50a11.33,11.33,0,0,0,7.023-2.417A5.667,5.667,0,0,1,3.1,43.66a7.135,7.135,0,0,0,1.068.088,5.983,5.983,0,0,0,1.489-.193A5.658,5.658,0,0,1,1.121,38v-.07a5.7,5.7,0,0,0,2.557.718,5.666,5.666,0,0,1-1.751-7.566A16.08,16.08,0,0,0,13.591,37a6.386,6.386,0,0,1-.14-1.3,5.663,5.663,0,0,1,9.791-3.871,11.138,11.138,0,0,0,3.59-1.366,5.642,5.642,0,0,1-2.487,3.118,11.341,11.341,0,0,0,3.258-.876,12.161,12.161,0,0,1-2.837,2.925Z" transform="translate(0 -18.79)" fill="#f89799"/>
  </g>
</svg>
